<svg width="36" height="37" viewBox="0 0 36 37" fill="none" xmlns="http://www.w3.org/2000/svg">
<path d="M32.8231 28.5549C32.2762 29.8127 31.6288 30.9704 30.8788 32.0348C29.8564 33.4859 29.0193 34.4903 28.3742 35.0481C27.3741 35.9636 26.3027 36.4325 25.1553 36.4591C24.3316 36.4591 23.3382 36.2258 22.1819 35.7525C21.0218 35.2814 19.9556 35.0481 18.9808 35.0481C17.9584 35.0481 16.8619 35.2814 15.6891 35.7525C14.5145 36.2258 13.5682 36.4725 12.8448 36.4969C11.7445 36.5436 10.6478 36.0614 9.55305 35.0481C8.85435 34.4414 7.98042 33.4015 6.93348 31.9282C5.8102 30.3549 4.88671 28.5305 4.16324 26.4506C3.38841 24.204 3 22.0285 3 19.9223C3 17.5097 3.52369 15.4289 4.57263 13.6852C5.39701 12.2845 6.49372 11.1797 7.86635 10.3686C9.23897 9.55751 10.7221 9.14419 12.3193 9.11774C13.1932 9.11774 14.3393 9.38685 15.7634 9.91572C17.1836 10.4464 18.0955 10.7155 18.4953 10.7155C18.7942 10.7155 19.8072 10.4008 21.5245 9.7735C23.1485 9.19174 24.5191 8.95086 25.6419 9.04575C28.6845 9.29018 30.9703 10.4841 32.4905 12.6352C29.7694 14.2765 28.4233 16.5753 28.4501 19.5243C28.4747 21.8214 29.3118 23.7329 30.9569 25.2506C31.7025 25.955 32.5352 26.4994 33.4615 26.8861C33.2606 27.4661 33.0486 28.0216 32.8231 28.5549ZM25.845 1.22021C25.845 3.02062 25.1843 4.70165 23.8673 6.25761C22.2779 8.10733 20.3554 9.17619 18.2707 9.00752C18.2442 8.79153 18.2288 8.5642 18.2288 8.32532C18.2288 6.59693 18.9846 4.74721 20.3269 3.23481C20.997 2.46906 21.8493 1.83234 22.8828 1.32442C23.9141 0.824083 24.8896 0.547384 25.8071 0.5C25.8339 0.740687 25.845 0.981389 25.845 1.22018V1.22021Z" fill="#101010"/>
<path d="M32.8231 28.5549C32.2762 29.8127 31.6288 30.9704 30.8788 32.0348C29.8564 33.4859 29.0193 34.4903 28.3742 35.0481C27.3741 35.9636 26.3027 36.4325 25.1553 36.4591C24.3316 36.4591 23.3382 36.2258 22.1819 35.7525C21.0218 35.2814 19.9556 35.0481 18.9808 35.0481C17.9584 35.0481 16.8619 35.2814 15.6891 35.7525C14.5145 36.2258 13.5682 36.4725 12.8448 36.4969C11.7445 36.5436 10.6478 36.0614 9.55305 35.0481C8.85435 34.4414 7.98042 33.4015 6.93348 31.9282C5.8102 30.3549 4.88671 28.5305 4.16324 26.4506C3.38841 24.204 3 22.0285 3 19.9223C3 17.5097 3.52369 15.4289 4.57263 13.6852C5.39701 12.2845 6.49372 11.1797 7.86635 10.3686C9.23897 9.55751 10.7221 9.14419 12.3193 9.11774C13.1932 9.11774 14.3393 9.38685 15.7634 9.91572C17.1836 10.4464 18.0955 10.7155 18.4953 10.7155C18.7942 10.7155 19.8072 10.4008 21.5245 9.7735C23.1485 9.19174 24.5191 8.95086 25.6419 9.04575C28.6845 9.29018 30.9703 10.4841 32.4905 12.6352C29.7694 14.2765 28.4233 16.5753 28.4501 19.5243C28.4747 21.8214 29.3118 23.7329 30.9569 25.2506C31.7025 25.955 32.5352 26.4994 33.4615 26.8861C33.2606 27.4661 33.0486 28.0216 32.8231 28.5549ZM25.845 1.22021C25.845 3.02062 25.1843 4.70165 23.8673 6.25761C22.2779 8.10733 20.3554 9.17619 18.2707 9.00752C18.2442 8.79153 18.2288 8.5642 18.2288 8.32532C18.2288 6.59693 18.9846 4.74721 20.3269 3.23481C20.997 2.46906 21.8493 1.83234 22.8828 1.32442C23.9141 0.824083 24.8896 0.547384 25.8071 0.5C25.8339 0.740687 25.845 0.981389 25.845 1.22018V1.22021Z" fill="#101010"/>
</svg>
